<?xml version="1.0" standalone="no"?>
<!DOCTYPE svg PUBLIC "-//W3C//DTD SVG 20010904//EN"
 "http://www.w3.org/TR/2001/REC-SVG-20010904/DTD/svg10.dtd">
<svg version="1.0" xmlns="http://www.w3.org/2000/svg"
 width="2048.000000pt" height="565.000000pt" viewBox="0 0 2048.000000 565.000000"
 preserveAspectRatio="xMidYMid meet">
<metadata>
Created by potrace 1.15, written by Peter Selinger 2001-2017
</metadata>
<g transform="translate(0.000000,565.000000) scale(0.100000,-0.100000)"
fill="#000000" stroke="none">
<path d="M0 4012 l0 -1638 66 -100 c107 -161 234 -434 264 -566 19 -84 33
-131 46 -158 7 -14 18 -41 25 -60 23 -65 61 -155 105 -245 52 -109 78 -167
115 -265 25 -64 27 -77 15 -89 -12 -12 -20 -12 -51 1 -32 13 -41 25 -76 104
-22 49 -52 125 -66 169 -13 44 -35 112 -48 150 -13 39 -39 121 -59 183 -21 63
-53 147 -72 187 -18 41 -34 76 -34 79 0 9 -80 173 -104 211 -13 22 -45 82 -71
133 -26 50 -49 92 -51 92 -2 0 -4 -495 -4 -1100 l0 -1100 2289 0 2290 0 -16
45 c-14 44 -12 115 5 115 4 0 41 -34 82 -75 68 -70 103 -92 130 -83 5 1 -5 24
-22 51 -146 213 -174 253 -178 262 -3 6 -19 31 -36 55 -17 25 -46 72 -65 105
-18 33 -42 74 -51 90 -32 53 -162 325 -213 445 -31 73 -95 315 -95 361 0 12 5
48 12 80 10 49 9 60 -5 82 -13 20 -16 60 -17 250 -1 297 7 317 128 317 67 0
182 -48 182 -76 0 -6 13 -14 29 -17 20 -4 39 -21 60 -51 32 -46 35 -49 90
-108 l33 -36 -22 -32 -23 -32 23 -62 c12 -33 29 -79 37 -101 16 -45 90 -163
113 -182 21 -17 27 -16 33 7 6 22 62 50 99 50 34 0 87 21 146 58 29 17 55 32
58 32 3 0 38 16 78 35 41 19 104 42 142 51 38 9 79 20 92 25 46 18 154 10 252
-20 250 -77 285 -90 421 -155 53 -25 110 -46 126 -46 33 0 53 -16 53 -41 0
-24 -14 -27 -77 -15 -90 16 -82 -8 29 -80 37 -24 80 -49 95 -55 38 -14 73 -49
73 -72 0 -20 -19 -20 -77 -2 -47 15 -20 -15 62 -70 77 -52 125 -96 125 -115 0
-16 -29 -18 -56 -3 -26 14 -91 19 -102 8 -2 -2 19 -27 47 -56 32 -33 53 -63
57 -84 9 -48 -1 -58 -48 -50 l-40 7 18 -31 c10 -17 29 -43 41 -57 13 -15 23
-36 23 -46 0 -28 -30 -35 -49 -11 -9 10 -29 25 -46 32 -16 7 -47 24 -68 39
-32 21 -42 24 -55 14 -9 -7 -27 -16 -38 -21 -12 -6 -29 -19 -37 -31 -8 -12
-30 -23 -53 -27 -21 -3 -49 -12 -64 -20 -14 -7 -35 -13 -48 -13 -12 0 -33 -6
-45 -14 -12 -8 -49 -17 -82 -21 -62 -7 -138 -26 -171 -43 -38 -19 -130 -52
-147 -52 -10 0 -28 -5 -39 -11 -12 -6 -51 -13 -87 -15 -93 -5 -168 -19 -186
-34 -19 -16 -19 -44 -1 -62 123 -115 272 -268 330 -340 l38 -48 969 0 c812 0
969 2 969 14 0 22 40 66 61 66 18 0 79 -55 79 -71 0 -5 75 -9 166 -9 l166 0
-31 26 c-17 14 -43 46 -57 70 -28 48 -35 52 -54 29 -16 -20 -70 -28 -101 -16
-35 13 -69 70 -68 112 0 19 8 48 18 64 19 33 48 41 43 12 -3 -19 6 -21 27 -8
12 8 12 12 -2 26 -10 9 -17 22 -17 29 0 7 -11 23 -25 36 -47 44 -18 160 39
160 26 0 33 -6 81 -64 35 -42 52 -46 61 -11 6 24 44 37 44 15 0 -5 7 -10 16
-10 21 0 15 59 -8 74 -25 15 -68 -11 -68 -41 0 -18 -5 -24 -17 -21 -21 4 -27
28 -18 74 8 43 37 59 86 47 50 -13 81 -63 77 -128 -3 -43 -7 -52 -30 -63 -31
-14 -36 -30 -13 -38 8 -4 13 -10 10 -14 -6 -10 83 -65 92 -57 15 16 -9 57 -42
68 -39 14 -42 21 -20 39 12 10 18 10 32 -1 100 -80 119 -144 58 -198 -41 -35
-48 -37 -65 -16 -19 23 -24 10 -6 -17 22 -34 33 -143 16 -163 -11 -13 -7 -15
33 -15 39 0 47 3 52 23 16 53 31 76 53 82 37 9 38 -1 3 -34 -44 -41 -38 -65
16 -69 41 -3 42 -2 41 25 -2 58 32 214 52 238 22 27 57 18 69 -16 16 -45 14
-63 -9 -84 -24 -22 -27 -75 -5 -75 8 0 15 -7 15 -15 0 -8 -4 -15 -10 -15 -5 0
-10 -11 -10 -25 0 -27 -9 -32 -27 -14 -12 12 -33 4 -33 -11 0 -5 162 -9 364
-10 l363 0 6 87 c3 49 1 145 -5 216 -8 87 -8 131 -1 138 10 10 26 14 103 22
25 3 104 14 177 23 112 15 136 16 157 5 18 -10 23 -18 17 -30 -14 -28 -10 -81
9 -119 15 -32 18 -59 17 -190 l-2 -152 33 0 c37 0 38 6 17 76 -13 43 -13 51 1
72 8 12 25 27 38 32 16 6 26 20 30 43 3 19 15 42 26 52 22 20 27 64 9 82 -13
13 -4 33 15 33 7 0 25 -9 39 -20 30 -24 57 -17 57 15 0 14 18 41 46 69 46 46
58 53 68 37 3 -4 17 -6 31 -3 17 3 33 -2 48 -15 12 -11 35 -23 50 -27 29 -7
67 -57 67 -88 0 -31 -22 -67 -49 -77 -70 -26 -168 -51 -202 -51 -21 0 -67 -9
-101 -19 -35 -11 -76 -23 -91 -26 -21 -4 -27 -10 -23 -21 3 -9 6 -23 6 -33 0
-29 56 -84 80 -78 11 3 23 1 26 -4 3 -5 17 -9 32 -9 15 0 47 -9 71 -20 42 -19
68 -20 972 -20 511 0 929 3 929 6 0 3 -6 18 -14 32 -8 15 -31 61 -51 102 -20
41 -48 86 -62 98 -22 20 -25 28 -17 50 8 20 16 26 33 24 30 -3 104 -64 120
-99 7 -15 20 -39 27 -53 8 -14 31 -55 52 -92 l37 -68 4254 0 c3703 0 4257 2
4285 15 17 8 45 16 61 18 l30 4 3 2180 2 2181 -53 45 c-30 25 -79 57 -109 72
-31 14 -65 36 -76 48 -22 24 -76 116 -93 160 -6 15 -14 27 -17 28 -79 6 -107
15 -225 73 -72 36 -139 66 -148 66 -9 0 -19 7 -22 15 -6 13 -23 24 -129 81
-21 12 -49 31 -62 43 -12 11 -29 21 -37 21 -29 0 -159 80 -196 120 -87 96
-128 213 -117 337 5 61 3 72 -18 103 l-24 35 -999 3 c-792 2 -1000 0 -1007
-10 -10 -17 -10 -88 1 -88 4 0 6 -10 4 -23 -3 -17 -15 -26 -41 -33 -53 -14
-72 -7 -72 24 0 34 14 57 29 48 6 -4 11 -3 11 3 0 5 -5 13 -10 16 -8 5 -7 11
1 21 6 7 9 21 5 29 -5 13 -108 15 -876 15 -824 0 -871 -1 -868 -17 4 -26 -35
-28 -80 -6 -21 11 -64 20 -99 22 -72 3 -75 -2 -46 -66 21 -45 29 -54 68 -77
37 -22 83 -85 77 -108 -2 -9 -12 -20 -23 -23 -10 -4 -19 -11 -19 -17 0 -6 -15
-8 -35 -6 -19 2 -36 1 -37 -4 -2 -4 -16 -1 -33 7 -77 37 -175 57 -175 36 0 -5
-14 -14 -30 -21 -43 -18 -44 -25 -12 -62 15 -18 41 -58 57 -89 l29 -57 -24
-36 c-37 -53 -59 -52 -147 9 -33 24 -71 46 -82 50 -12 3 -29 19 -38 33 -39 62
-43 64 -75 37 -40 -34 -90 -41 -149 -22 -37 11 -58 13 -86 5 -106 -27 -143
-18 -203 49 -51 59 -54 95 -7 123 41 25 66 25 128 -1 27 -12 52 -19 56 -15 3
3 6 22 5 41 -1 19 4 37 10 41 8 5 5 10 -8 15 -17 7 -17 8 -1 8 9 1 17 9 17 19
0 14 2 14 9 3 15 -23 39 -5 47 34 3 19 10 38 15 41 5 3 9 16 9 30 l0 24 -891
0 c-709 0 -889 -3 -883 -12 32 -53 190 -249 319 -394 21 -24 287 -291 327
-329 24 -22 50 -40 59 -40 20 -1 69 -39 69 -54 0 -7 9 -29 20 -49 10 -20 22
-44 25 -52 7 -19 30 -53 77 -116 21 -27 40 -62 43 -79 4 -16 9 -37 11 -47 5
-18 53 -38 90 -38 14 0 46 -23 86 -62 74 -72 129 -118 208 -173 30 -21 89 -66
130 -100 41 -34 118 -92 170 -130 115 -83 131 -97 175 -157 79 -108 88 -146
74 -303 -53 -598 -63 -929 -29 -945 42 -20 79 -28 83 -16 3 8 8 7 19 -2 17
-14 68 -7 68 9 0 5 7 9 15 9 8 0 15 6 15 14 0 8 8 17 18 20 18 6 33 29 46 69
7 22 26 22 26 0 1 -15 4 -14 21 7 12 14 25 25 29 25 5 0 12 3 16 8 4 4 -2 7
-14 7 -14 0 -22 6 -22 16 0 11 5 14 16 10 10 -4 26 3 42 19 13 14 31 25 39 25
8 0 11 5 7 12 -6 11 -4 11 7 1 7 -7 21 -13 31 -13 10 0 18 -4 18 -10 0 -5 -8
-10 -17 -10 -14 0 -15 -2 -5 -9 7 -4 25 -6 39 -3 22 4 24 2 19 -16 -5 -16 -1
-22 21 -29 28 -10 73 4 73 22 0 6 4 4 9 -4 7 -10 5 -18 -6 -26 -13 -10 -12
-14 11 -28 19 -13 26 -14 26 -4 0 7 9 13 20 14 23 2 47 24 80 73 27 41 110
122 127 126 7 1 27 9 44 18 45 22 114 20 158 -5 21 -11 53 -45 76 -80 24 -37
55 -69 82 -84 70 -42 105 -98 117 -190 38 -279 70 -388 124 -421 58 -33 119
-206 85 -240 -8 -7 -17 -14 -21 -15 -4 -1 -29 -3 -56 -5 -46 -4 -51 -2 -78 31
-16 19 -35 35 -42 35 -11 0 -54 27 -263 168 -34 23 -67 42 -73 42 -6 0 -23 9
-38 20 -15 11 -56 25 -92 31 -66 11 -290 111 -290 130 0 5 -4 9 -10 9 -5 0
-30 13 -56 30 -26 16 -52 26 -58 23 -13 -9 -156 -4 -171 5 -20 13 -118 0 -145
-19 -14 -11 -64 -27 -111 -35 -46 -9 -91 -19 -99 -23 -9 -5 -18 -30 -22 -62
-4 -30 -19 -144 -34 -254 -20 -144 -28 -248 -29 -370 -2 -187 -15 -267 -48
-290 -31 -21 -50 -19 -78 11 -13 14 -51 45 -84 69 -33 23 -90 75 -126 114 -37
39 -71 71 -76 71 -4 0 -14 9 -21 20 -7 11 -17 20 -23 20 -13 0 -31 15 -164
143 -56 54 -117 107 -134 118 -32 19 -104 89 -176 169 -34 38 -238 233 -362
345 -97 89 -189 173 -217 200 -17 17 -78 71 -136 122 -58 50 -134 121 -170
157 -54 55 -66 63 -72 49 -3 -10 -7 -321 -7 -690 l-1 -673 -567 0 c-313 0
-958 -1 -1435 -1 l-867 0 -25 -23 c-14 -12 -26 -28 -26 -36 0 -31 -76 -134
-116 -156 -10 -6 -41 -17 -69 -24 -43 -11 -55 -10 -87 3 -21 9 -40 12 -43 7
-3 -4 2 -27 10 -51 25 -69 36 -167 22 -196 -9 -21 -8 -27 8 -39 10 -8 14 -14
8 -14 -6 0 -15 -15 -19 -32 -3 -18 -13 -43 -21 -55 -12 -19 -12 -25 1 -52 18
-33 22 -86 6 -76 -5 3 -10 15 -10 25 0 11 -12 44 -26 73 l-27 54 -43 -5 c-48
-5 -85 12 -104 48 -10 19 -10 20 10 8 18 -11 23 -10 36 6 20 28 18 39 -16 74
-33 35 -34 39 -20 96 5 25 5 46 -1 58 -9 16 -85 58 -106 58 -16 0 -73 66 -73
84 0 9 5 26 10 37 13 23 -1 55 -29 64 -11 3 -24 19 -30 35 l-10 30 -295 0
-296 0 0 981 c0 688 -3 978 -11 974 -15 -10 -74 60 -105 123 -21 42 -30 52
-51 52 -25 0 -108 77 -119 113 -7 23 -23 22 -67 -9 -75 -51 -242 -69 -315 -34
-22 11 -50 20 -61 20 -27 0 -88 54 -111 99 -10 20 -30 50 -45 66 -14 17 -38
50 -52 75 -15 25 -27 46 -29 48 -1 2 -13 0 -27 -3 -25 -7 -24 -9 48 -83 62
-64 75 -84 81 -120 5 -32 2 -48 -12 -70 -18 -26 -19 -26 -22 -5 -4 24 -36 39
-98 46 -36 4 -87 34 -154 91 -28 24 -64 71 -87 114 -55 104 2 392 78 392 23 0
25 22 4 40 -8 7 -15 18 -15 24 0 6 -16 29 -34 51 l-34 40 -13 -30 c-20 -45
-60 -105 -71 -105 -5 0 3 22 18 50 15 27 30 50 35 50 16 0 18 55 3 112 -9 38
-13 80 -10 108 3 25 6 58 6 73 -1 98 51 164 181 230 116 59 198 75 275 57 41
-10 54 -18 54 -31 0 -26 31 -39 108 -45 37 -3 79 -7 94 -8 47 -5 172 -91 211
-146 24 -35 21 -56 -13 -92 -16 -17 -30 -34 -30 -37 0 -3 12 -28 25 -56 l25
-50 -22 -16 c-20 -16 -18 -39 4 -39 12 0 117 -110 118 -123 0 -4 16 -31 35
-60 31 -46 33 -53 19 -64 -13 -9 -14 -20 -5 -68 12 -66 4 -90 -53 -144 -20
-19 -36 -40 -36 -45 0 -6 63 -76 140 -155 l140 -144 0 351 0 352 138 0 c76 0
241 3 365 7 l227 6 -33 23 c-17 12 -41 36 -52 53 -11 16 -30 35 -42 42 -12 6
-25 19 -28 27 -8 21 22 62 45 62 31 0 151 -62 185 -95 16 -16 49 -45 73 -63
23 -19 40 -37 37 -42 -3 -4 32 -10 78 -14 100 -7 3042 -8 3078 0 28 5 25 -7
64 239 21 134 42 243 65 345 11 47 22 101 24 120 13 101 16 132 22 210 3 47 8
88 11 93 2 4 8 30 12 57 l8 50 -3453 0 c-2994 0 -3454 -2 -3454 -15 0 -18 -66
-69 -79 -60 -6 3 -20 1 -31 -5 -14 -8 -26 -8 -40 0 -25 13 -26 37 -2 43 16 4
16 5 0 6 -10 0 -18 8 -18 16 0 13 -43 15 -325 15 l-325 0 -19 -39 c-16 -31
-30 -42 -67 -55 -52 -18 -159 -22 -169 -6 -3 5 -18 7 -33 4 -34 -7 -86 12 -76
28 4 7 3 8 -4 4 -12 -7 -62 36 -62 54 0 7 -250 10 -800 10 -800 0 -800 0 -800
-20 0 -41 -28 -76 -72 -93 -45 -17 -78 -58 -78 -95 0 -24 -33 -47 -80 -56 -29
-5 -42 -1 -69 18 -18 14 -47 28 -64 32 -17 3 -50 17 -75 30 -25 13 -53 24 -63
24 -26 0 -97 39 -108 59 -8 13 -27 16 -93 17 -85 1 -128 15 -201 67 -23 16
-35 18 -60 10 -18 -5 -50 -7 -72 -5 -22 2 -424 6 -892 8 l-853 4 0 -1638z
m15568 1507 c2 -4 9 -6 15 -4 15 6 40 -14 56 -42 13 -25 6 -69 -14 -93 -19
-22 -22 -65 -5 -85 12 -15 12 -18 -3 -26 -9 -5 -14 -16 -11 -23 3 -8 0 -17 -5
-21 -6 -3 -9 -10 -6 -15 3 -5 1 -18 -5 -29 -8 -16 -6 -22 7 -30 17 -9 17 -11
-3 -29 -21 -20 -40 -26 -77 -23 -11 1 -15 6 -11 13 4 6 3 8 -4 4 -6 -3 -31 -1
-57 6 -36 10 -50 10 -65 0 -27 -16 -67 -15 -73 3 -7 17 30 131 52 163 11 15
23 20 37 17 18 -4 26 5 53 68 17 39 34 88 37 107 9 49 21 61 53 53 14 -3 27
-10 29 -14z m2452 -31 c11 -10 24 -18 28 -18 21 0 59 -26 78 -54 11 -17 26
-30 32 -28 14 2 16 -24 2 -33 -6 -4 -6 -15 1 -32 13 -34 5 -53 -21 -53 -11 0
-20 -4 -20 -10 0 -6 -52 -9 -135 -7 -85 1 -134 6 -131 12 2 6 -6 23 -16 38
-16 23 -18 30 -7 43 10 13 9 16 -9 21 -25 6 -30 23 -7 23 8 0 15 -4 15 -10 0
-5 5 -10 10 -10 6 0 10 16 10 35 0 37 22 91 40 97 31 10 111 1 130 -14z
m-2070 -26 c19 -11 47 -22 61 -25 14 -4 42 -18 63 -32 20 -14 43 -25 50 -25 7
0 27 -12 43 -27 17 -16 43 -36 57 -46 28 -20 35 -64 14 -85 -16 -16 4 -32 39
-32 16 0 23 -8 28 -30 4 -16 11 -30 16 -30 5 0 9 -7 9 -15 0 -8 5 -15 12 -15
6 0 9 -3 6 -6 -3 -3 -15 0 -27 8 -15 9 -24 9 -31 2 -8 -8 -5 -13 13 -18 26 -6
46 -51 29 -68 -11 -11 -69 19 -104 54 -15 16 -28 25 -28 21 0 -4 -13 7 -29 25
-17 17 -37 32 -45 32 -8 0 -37 12 -63 26 -134 74 -197 90 -223 59 -8 -10 -15
-25 -15 -34 0 -9 -14 -21 -35 -27 -49 -16 -90 2 -113 50 -10 20 -22 34 -27 31
-13 -8 -13 1 0 24 5 10 24 21 41 25 18 3 29 9 26 13 -4 3 -2 12 5 20 8 10 8
17 1 24 -8 8 -2 20 20 40 16 16 33 29 37 29 4 0 10 9 13 19 4 16 16 21 53 24
27 2 54 4 59 5 6 1 26 -6 45 -16z m1348 -125 c17 -17 32 -35 32 -41 0 -5 14
-21 31 -35 26 -22 31 -35 36 -86 6 -66 25 -105 49 -105 12 0 15 7 11 27 -8 44
12 83 52 101 87 37 187 -22 175 -103 -12 -83 -39 -192 -50 -205 -17 -20 3
-121 42 -221 21 -54 26 -79 22 -124 -3 -31 -1 -58 4 -61 4 -3 8 -12 8 -21 0
-19 49 -121 61 -129 5 -3 9 -16 9 -28 0 -28 39 -81 40 -55 0 9 7 22 15 29 8 7
13 16 10 20 -8 13 16 80 29 80 8 0 19 7 26 15 7 9 27 14 51 13 23 -1 46 5 56
14 22 19 38 14 83 -25 47 -41 62 -67 97 -172 86 -253 87 -317 9 -355 -53 -25
-64 -25 -92 1 -30 28 -44 21 -93 -41 -56 -71 -84 -180 -51 -200 10 -6 14 -37
14 -117 1 -121 2 -118 -87 -230 -27 -34 -59 -63 -71 -65 -16 -2 -21 -11 -24
-42 -1 -22 -4 -42 -7 -44 -10 -10 -46 12 -58 36 -11 25 -17 27 -60 24 -44 -3
-48 -2 -58 25 -19 49 -19 120 0 181 10 31 21 78 25 104 3 26 14 66 25 90 28
62 51 146 51 188 0 43 -23 69 -66 74 -16 3 -37 7 -47 11 -9 4 -23 3 -30 -2 -6
-6 -43 -22 -80 -37 -52 -20 -78 -25 -105 -20 -46 8 -114 42 -108 53 3 5 -6 21
-20 37 -14 16 -30 38 -35 49 -6 11 -18 36 -29 55 -10 19 -16 38 -14 42 3 4 -2
21 -11 38 -11 21 -23 30 -40 30 -14 0 -25 -4 -25 -9 0 -6 -12 -16 -27 -23 -20
-9 -29 -22 -31 -43 -5 -62 -10 -71 -42 -73 -16 -1 -30 2 -30 8 0 24 -148 170
-173 170 -10 0 -61 43 -113 95 l-96 96 7 41 c8 45 -2 58 -47 58 -34 0 -47 19
-19 27 12 3 21 10 21 15 0 6 7 8 15 5 17 -7 32 12 18 22 -6 3 -8 37 -6 76 2
39 4 95 6 126 1 31 7 56 12 57 6 0 20 4 32 7 16 5 25 3 29 -9 3 -9 10 -16 14
-16 4 0 30 -22 58 -50 28 -27 55 -50 60 -50 5 0 34 -20 66 -45 58 -45 93 -62
104 -51 7 7 8 259 2 397 -5 93 -4 98 20 118 14 12 44 31 67 42 23 11 47 27 53
34 6 7 13 53 16 102 3 48 10 100 17 116 12 27 13 27 72 21 48 -5 66 -12 93
-37z m1207 21 c14 -6 25 -17 25 -25 0 -7 7 -16 15 -19 8 -4 15 -12 15 -20 0
-7 9 -30 20 -50 22 -39 22 -40 -27 -90 -25 -25 -28 -41 -14 -64 7 -10 4 -18
-10 -28 -14 -9 -17 -20 -13 -38 8 -30 -2 -31 -27 -1 -10 12 -18 16 -19 10 0
-18 -20 -16 -20 1 0 8 -8 21 -17 28 -19 14 -21 47 -9 151 7 61 38 157 51 157
2 0 16 -5 30 -12z m-1628 -211 c34 -18 46 -50 39 -106 -3 -18 -6 -34 -8 -35
-14 -10 -136 -22 -150 -15 -9 5 -27 9 -40 9 -16 0 -33 14 -55 47 -32 46 -32
47 -15 76 10 17 32 35 50 41 42 15 137 5 179 -17z m-2257 -55 c36 -54 39 -72
16 -119 -23 -49 -64 -73 -141 -83 -56 -8 -95 9 -95 40 0 10 23 42 51 71 28 30
62 71 75 92 32 49 61 49 94 -1z m974 -198 c9 -8 16 -20 16 -25 0 -5 9 -9 21
-9 23 0 60 -18 71 -34 4 -6 8 -23 8 -37 0 -21 -8 -31 -37 -46 -21 -11 -42 -19
-48 -17 -5 1 -22 5 -37 8 -31 7 -78 77 -78 116 0 24 34 60 56 60 7 0 20 -7 28
-16z m674 -61 c43 -6 73 -103 36 -117 -60 -23 -144 13 -144 63 0 46 51 91 78
68 8 -6 21 -12 30 -14z m-8160 -54 c34 -6 65 -16 68 -20 3 -5 16 -9 30 -9 13
0 24 -4 24 -9 0 -6 13 -6 31 1 24 8 37 8 50 -1 10 -6 28 -11 40 -11 11 0 30
-5 42 -12 12 -6 36 -11 53 -10 22 2 44 -8 77 -33 48 -37 68 -39 61 -7 -5 20
12 44 41 59 26 14 123 -2 148 -25 19 -17 20 -55 2 -94 -5 -14 -2 -18 13 -18
11 0 32 -6 47 -14 15 -8 33 -12 40 -10 7 3 16 0 20 -6 6 -9 -22 -11 -111 -8
-97 3 -128 8 -169 27 -27 12 -66 24 -85 27 -45 5 -145 32 -188 50 -18 8 -38
14 -45 14 -7 0 -28 10 -47 22 -19 12 -44 23 -55 24 -11 2 -37 6 -57 8 -21 3
-59 13 -85 22 -27 9 -52 17 -58 18 -5 2 -19 7 -30 12 -17 8 -15 9 15 14 39 6
40 6 128 -11z m8202 -388 c42 -26 45 -30 42 -67 -2 -21 -10 -45 -19 -51 -23
-17 -13 -24 41 -27 25 -1 62 -11 82 -22 40 -21 107 -81 110 -98 1 -6 3 -15 5
-21 1 -5 -3 -23 -10 -39 -11 -27 -13 -28 -25 -11 -11 15 -25 18 -74 16 -59 -2
-132 20 -132 39 0 4 -16 24 -36 44 -37 38 -37 49 5 82 11 8 5 14 -28 27 -23
10 -50 17 -60 17 -11 0 -33 11 -50 25 l-30 26 27 27 c37 38 74 62 92 61 8 0
35 -13 60 -28z m3626 -96 c26 -17 58 -115 48 -147 -4 -13 -7 -25 -7 -28 1 -12
-40 -60 -51 -60 -19 0 -73 61 -90 102 -18 42 -20 95 -7 132 9 22 15 24 48 20
21 -3 47 -11 59 -19z m-14217 -216 c39 -14 83 -79 85 -125 1 -35 -37 -94 -82
-128 -36 -27 -110 -32 -152 -11 -71 37 -150 135 -109 135 8 0 8 4 0 14 -17 20
12 49 89 90 69 37 115 44 169 25z m839 -361 c-9 -18 -21 -44 -27 -58 -6 -14
-15 -32 -20 -40 -17 -27 -41 -83 -37 -87 2 -2 13 11 25 29 11 18 26 42 33 53
7 11 16 22 20 25 3 3 9 17 13 32 4 14 15 35 24 45 10 10 21 25 24 33 4 8 4 -1
1 -20 -4 -19 -10 -36 -15 -38 -11 -5 -12 -32 -1 -32 4 0 13 5 20 12 9 9 17 9
36 -1 18 -10 29 -10 45 -2 14 8 21 8 21 1 0 -18 29 -11 40 10 6 11 17 20 25
20 23 0 18 -13 -17 -40 -63 -50 -78 -69 -78 -99 0 -35 16 -50 24 -23 7 21 56
70 56 56 0 -5 -15 -40 -34 -79 -64 -128 -93 -280 -63 -320 15 -19 16 -19 36
-1 28 25 64 107 80 181 7 33 21 85 30 115 14 48 16 51 19 26 2 -16 -1 -57 -7
-91 -6 -34 -11 -102 -11 -151 0 -96 13 -133 44 -121 21 8 21 -1 -1 -25 -40
-44 -77 2 -75 93 1 59 -11 63 -34 12 -44 -96 -98 -131 -125 -81 -15 28 -7 159
13 216 9 23 13 42 9 42 -3 0 -22 -11 -42 -24 -31 -21 -38 -34 -53 -95 -10 -39
-15 -75 -12 -80 3 -4 -21 -29 -53 -55 -57 -44 -59 -48 -70 -109 -6 -35 -11
-71 -11 -80 0 -12 -9 -17 -28 -17 -16 0 -38 -9 -50 -20 -12 -11 -28 -20 -37
-20 -23 0 -31 31 -12 42 10 5 17 21 17 38 0 17 4 30 9 30 6 0 16 12 23 27 7
15 23 30 35 33 17 4 20 9 13 20 -5 8 -7 24 -4 36 4 14 0 23 -10 27 -10 4 -24
-10 -45 -49 -17 -30 -35 -54 -39 -54 -4 0 -8 21 -9 46 -1 26 -7 50 -14 55 -10
6 -8 17 5 53 10 25 21 46 26 46 5 0 11 15 15 33 4 17 18 43 30 57 27 29 115
194 115 215 0 8 5 15 10 15 6 0 10 6 11 13 0 6 14 32 29 57 16 25 36 60 45 79
8 19 18 31 22 28 3 -4 -1 -22 -9 -39z m1114 -33 c-3 -23 1 -41 9 -46 10 -6 9
-12 -5 -27 -15 -18 -17 -38 -14 -171 3 -133 5 -152 22 -164 13 -9 16 -20 12
-35 -11 -32 -25 -27 -44 16 -12 28 -16 68 -17 165 0 70 -4 127 -8 127 -5 0 -5
5 -1 11 5 9 -1 10 -20 5 -33 -8 -34 7 -2 31 16 13 29 39 37 76 15 63 36 72 31
12z m278 -10 c0 -13 -8 -29 -17 -34 -16 -9 -16 -10 -2 -11 9 0 28 9 42 20 14
11 28 16 31 11 3 -5 1 -42 -4 -82 -13 -100 -12 -149 1 -149 24 0 38 36 39 96
0 63 12 112 38 152 18 27 28 22 13 -6 -8 -15 -8 -21 1 -24 12 -4 8 -41 -18
-158 -4 -18 1 -31 15 -44 20 -18 21 -18 51 12 36 36 41 17 5 -22 -28 -30 -69
-34 -84 -9 -8 14 -12 15 -25 4 -9 -7 -16 -19 -16 -26 0 -7 -6 -18 -14 -24 -10
-9 -17 -7 -27 5 -10 13 -13 44 -11 123 2 65 -1 102 -7 96 -5 -6 -11 -18 -13
-27 -2 -14 -8 -11 -26 15 -21 32 -22 36 -7 70 18 42 35 48 35 12z m-580 -144
c0 -10 -7 -24 -15 -31 -8 -7 -15 -20 -15 -29 1 -13 3 -13 15 3 23 30 18 5 -11
-55 -23 -46 -26 -63 -21 -117 6 -74 18 -93 48 -74 19 12 19 12 5 -16 -8 -16
-21 -34 -30 -41 -24 -20 -45 25 -52 111 -6 66 -10 77 -28 83 -20 7 -20 7 4 14
20 6 26 16 36 65 14 67 32 106 51 106 7 0 13 -8 13 -19z m-1650 -137 c0 -6 -4
-10 -75 -73 -68 -60 -162 -148 -335 -312 -178 -168 -223 -208 -232 -209 -19 0
-1 20 77 90 80 72 100 100 73 100 -18 1 -53 29 -45 36 3 4 23 -3 43 -15 l37
-22 51 49 c28 26 82 77 121 113 38 35 103 96 145 135 41 39 86 80 99 92 24 21
41 28 41 16z m12563 -125 c21 -13 54 -37 72 -52 19 -15 62 -42 97 -59 76 -37
108 -65 108 -92 0 -12 4 -27 9 -35 5 -8 6 -21 1 -30 -4 -9 -14 -29 -21 -46
-16 -37 -36 -56 -71 -72 -35 -16 -37 -55 -5 -86 12 -12 31 -39 42 -59 11 -22
33 -44 53 -54 50 -23 40 -49 -19 -49 -25 0 -52 -5 -60 -11 -37 -30 -56 -34
-87 -19 -16 9 -35 22 -42 30 -7 8 -19 15 -26 15 -8 0 -14 6 -14 14 0 8 -7 22
-16 30 -11 11 -16 38 -17 88 -2 80 3 75 -97 114 -67 27 -123 73 -164 133 -36
54 -40 70 -36 146 1 32 9 46 38 72 21 17 54 35 74 38 21 4 40 10 42 14 9 14
101 -6 139 -30z m-12873 -15 c0 -16 -118 -121 -150 -133 -59 -23 -245 -116
-248 -124 -2 -4 -36 -29 -75 -55 -40 -25 -75 -51 -79 -57 -5 -6 -8 -5 -8 3 0
7 12 30 28 50 l27 37 -37 -28 c-26 -19 -39 -24 -44 -15 -8 12 42 58 64 58 6 0
12 5 12 10 0 15 -43 12 -68 -6 -12 -8 -22 -11 -22 -6 0 5 10 14 23 20 73 35
140 61 197 77 78 21 150 52 150 65 0 16 -20 22 -35 10 -8 -6 -16 -7 -19 -2 -7
11 18 35 27 26 3 -3 29 6 58 21 l53 26 27 -20 c16 -12 33 -21 39 -21 16 0 12
27 -5 34 -33 12 -14 31 35 34 28 2 50 0 50 -4z m11728 -123 c90 -71 184 -195
175 -229 -3 -14 3 -28 20 -44 67 -60 77 -68 77 -61 0 4 9 -5 19 -22 17 -27 18
-37 8 -95 -8 -51 -17 -70 -39 -90 -15 -13 -28 -34 -28 -46 0 -12 -7 -27 -15
-34 -9 -7 -13 -20 -10 -28 8 -21 -5 -35 -21 -21 -10 8 -14 8 -14 0 0 -24 -69
-11 -104 19 -19 17 -36 27 -39 23 -2 -4 -2 -69 1 -143 9 -254 8 -268 -32 -360
-20 -46 -36 -90 -36 -99 0 -8 -4 -28 -10 -45 -5 -17 -14 -53 -21 -79 -15 -60
-47 -87 -104 -87 -25 0 -48 6 -54 14 -7 8 -31 18 -54 21 -23 4 -64 23 -92 41
-27 19 -55 34 -61 34 -6 0 -26 7 -44 17 -18 9 -49 18 -68 20 -19 2 -59 15 -89
28 -82 38 -130 46 -176 30 -22 -7 -46 -11 -53 -8 -8 3 -21 2 -30 -1 -12 -5
-10 -12 15 -38 22 -24 27 -35 19 -45 -6 -8 -6 -13 -1 -13 19 0 62 -106 65
-161 3 -50 1 -57 -19 -66 -13 -7 -25 -7 -29 -2 -3 5 1 9 8 9 9 0 10 3 2 8 -14
9 -45 128 -38 146 3 7 -7 29 -21 50 -14 20 -25 43 -25 51 0 8 -5 17 -10 20 -6
4 -8 10 -5 15 3 4 -3 11 -12 14 -12 5 -13 10 -5 18 8 8 6 18 -8 36 -11 14 -20
32 -20 41 0 10 -4 21 -9 27 -10 10 -65 172 -76 221 -3 17 -13 37 -21 44 -8 6
-14 17 -14 23 0 7 -11 27 -25 46 -36 49 -46 94 -34 150 13 61 38 83 126 109
94 28 186 28 233 0 57 -34 80 -60 80 -90 0 -19 4 -27 13 -23 17 6 37 -54 30
-90 -7 -37 51 -88 139 -120 38 -14 73 -26 79 -26 13 0 11 27 -4 63 -8 18 -20
50 -26 72 -7 22 -26 67 -42 99 -18 36 -29 75 -29 100 0 48 29 126 48 126 6 0
12 6 12 13 1 16 63 88 171 198 74 76 129 155 129 188 0 13 59 57 85 64 35 9
76 -2 113 -32z m-9319 -130 c-2 -48 0 -92 5 -99 4 -6 2 -21 -5 -34 -8 -14 -10
-63 -7 -151 4 -110 8 -132 23 -143 10 -7 15 -20 12 -29 -20 -50 -56 26 -64
132 -5 60 -8 71 -19 62 -8 -6 -14 -18 -14 -25 0 -7 -12 -38 -26 -69 -21 -45
-29 -53 -40 -44 -8 6 -14 26 -14 45 0 18 -5 36 -11 40 -8 4 -9 23 -4 58 4 28
10 71 14 95 6 43 24 65 33 39 3 -7 1 -58 -3 -113 -9 -110 1 -141 26 -82 28 69
40 126 28 138 -9 9 -7 18 7 38 13 19 20 52 24 124 6 102 11 122 27 111 6 -4 9
-42 8 -93z m-3599 67 c10 -13 68 -114 142 -248 20 -36 53 -94 73 -130 21 -36
46 -80 57 -98 10 -19 16 -42 13 -52 -6 -20 -89 -55 -210 -89 -38 -11 -128 -38
-200 -61 -71 -23 -179 -57 -240 -75 -60 -18 -148 -45 -195 -60 -47 -15 -107
-33 -135 -40 -27 -7 -97 -26 -155 -42 -237 -68 -420 -108 -438 -97 -19 12
-119 150 -246 339 -44 66 -83 122 -87 125 -3 3 -12 16 -18 28 -16 31 2 80 33
87 11 3 66 14 121 26 101 21 125 27 295 74 52 14 137 37 187 50 51 13 184 50
295 81 112 31 221 61 242 66 41 9 308 89 381 113 52 17 72 18 85 3z m2359 -98
c21 -22 46 -56 55 -75 17 -34 47 -47 61 -25 3 6 49 10 102 10 89 0 102 -3 167
-34 39 -18 80 -43 90 -55 24 -26 33 -26 41 -2 8 25 41 36 60 21 21 -17 19 -32
-4 -25 -13 4 -24 -2 -36 -22 -17 -25 -17 -29 0 -78 11 -34 16 -72 14 -114 -3
-47 0 -64 11 -71 12 -8 13 -13 3 -29 -18 -29 -9 -139 17 -196 51 -113 66 -239
35 -299 -15 -29 -15 -31 18 -65 19 -20 41 -49 49 -66 13 -28 12 -32 -10 -63
-20 -26 -22 -36 -13 -45 13 -12 12 -13 61 53 l18 24 37 -19 c47 -26 56 -42 45
-91 -9 -38 -56 -134 -67 -134 -2 0 -13 5 -24 10 -10 6 -19 7 -19 2 0 -14 23
-32 41 -32 9 0 21 -12 26 -27 6 -16 16 -44 22 -63 32 -89 34 -107 17 -192 -8
-46 -18 -101 -22 -123 -9 -52 -18 -62 -64 -70 -58 -10 -68 -28 -38 -67 13 -18
27 -41 31 -50 3 -10 16 -18 27 -18 19 0 21 -4 15 -47 -4 -27 -11 -72 -16 -100
-12 -59 -6 -77 21 -68 17 5 17 3 5 -32 -22 -63 -55 -53 -55 16 0 33 0 33 -25
17 -28 -18 -88 -21 -133 -5 -55 19 -57 4 -4 -37 29 -21 54 -49 58 -61 9 -33
-28 -101 -89 -166 -48 -51 -58 -57 -75 -48 -12 6 -34 11 -50 11 -16 0 -46 11
-66 25 -36 24 -141 65 -168 65 -30 0 -86 21 -105 40 -20 18 -21 22 -7 50 17
34 34 37 69 14 43 -28 48 -10 8 33 -21 22 -46 64 -56 93 -17 46 -17 54 -4 67
13 13 20 13 50 2 30 -10 39 -10 52 1 10 8 24 15 32 16 39 6 31 22 -14 28 -26
3 -62 15 -80 26 l-32 19 5 133 c4 131 19 324 30 383 7 42 -30 89 -101 125 -32
17 -66 38 -76 49 -10 10 -44 34 -76 52 -32 18 -110 70 -173 115 -63 45 -152
105 -198 134 -46 29 -81 57 -79 63 2 6 30 20 63 31 32 12 60 22 62 23 2 0 -3
15 -12 31 -15 28 -14 33 14 87 16 31 34 63 40 71 9 10 9 22 1 46 -14 43 -20
198 -10 268 4 30 10 91 13 136 6 93 9 104 48 161 30 44 91 86 143 99 38 9 95
52 95 71 0 15 33 31 68 32 13 1 37 -15 61 -39z m11071 -19 c0 -13 2 -14 9 -2
7 11 13 7 24 -20 7 -19 10 -35 5 -37 -17 -7 -7 -32 20 -46 34 -18 65 -51 67
-74 1 -9 7 -27 13 -39 18 -33 14 -142 -7 -178 -21 -37 -81 -50 -81 -18 0 11
-4 23 -9 29 -9 9 -14 42 -27 161 -6 50 -3 67 11 89 16 25 16 28 1 39 -9 7 -16
17 -16 24 0 6 -4 11 -10 11 -5 0 -10 11 -10 24 0 14 -4 28 -10 31 -16 10 -12
35 5 29 8 -4 15 -14 15 -23z m-11984 -416 c3 -8 -4 -26 -15 -41 -28 -36 -27
-44 14 -77 40 -32 44 -53 15 -89 -26 -34 -69 -42 -89 -17 -9 11 -34 26 -56 33
-21 8 -41 18 -42 23 -7 19 33 55 67 62 34 7 35 9 32 48 -2 27 2 46 13 57 20
20 54 21 61 1z m1901 -92 c33 -26 45 -45 63 -105 6 -20 4 -32 -11 -49 -21 -25
-24 -39 -8 -39 16 0 39 26 39 45 0 8 11 20 24 26 45 21 106 -45 106 -116 0
-15 -10 -48 -21 -76 -20 -46 -21 -50 -4 -75 9 -14 23 -48 32 -76 16 -55 13
-62 -35 -74 -17 -5 -31 1 -50 19 -15 13 -41 32 -59 41 l-32 16 1 -29 c1 -16
-12 -47 -29 -72 -23 -35 -35 -44 -56 -42 -37 2 -73 32 -93 76 -15 32 -16 45
-7 80 13 47 10 57 -17 57 -31 0 -70 42 -80 84 -18 80 51 186 94 144 22 -23 20
-48 -3 -48 -30 0 -32 -14 -5 -27 19 -9 24 -8 24 2 0 8 8 18 17 24 14 7 15 13
6 33 -6 14 -9 53 -6 94 4 59 9 72 31 91 34 29 36 29 79 -4z m432 -282 c50 -26
75 -64 65 -99 -4 -15 -8 -33 -9 -41 0 -8 -6 -16 -13 -19 -17 -5 -15 -42 3 -42
9 0 20 12 25 26 11 28 74 94 91 94 22 0 47 -21 59 -49 14 -34 8 -83 -18 -142
-14 -34 -21 -38 -56 -41 -23 -2 -41 -9 -44 -17 -4 -11 3 -12 32 -7 31 6 37 4
45 -16 28 -68 34 -188 10 -188 -5 0 -34 20 -65 45 -61 50 -79 56 -69 23 4 -13
8 -25 9 -28 5 -20 -30 -70 -56 -79 -64 -23 -115 40 -101 126 5 32 2 39 -28 64
-32 26 -34 31 -32 84 3 64 24 111 54 120 17 6 20 12 14 33 -16 66 -16 91 0
123 15 29 32 48 43 49 1 0 20 -9 41 -19z m10953 -652 c13 -6 36 -27 52 -46
l29 -34 -17 -52 c-17 -55 -48 -97 -85 -116 -18 -10 -28 -9 -55 9 -96 59 -91
170 9 227 47 27 39 25 67 12z m-10915 -72 c-3 -8 -8 -85 -13 -173 -7 -155 -6
-159 12 -144 10 8 24 22 31 30 19 24 28 3 28 -65 0 -73 -19 -118 -46 -110 -23
8 -34 -29 -26 -86 3 -21 1 -39 -4 -39 -11 0 -11 -4 -14 150 -1 69 -5 133 -9
142 -5 10 -3 40 4 68 7 28 10 87 9 133 -2 45 0 88 4 95 11 16 30 16 24 -1z
m-4957 -154 c14 -8 43 -25 64 -38 25 -15 55 -23 82 -23 24 0 47 -3 53 -6 11
-7 176 -21 256 -21 33 0 86 9 118 19 48 16 62 17 85 7 25 -12 25 -14 9 -25
-17 -13 -25 -32 -8 -22 15 10 21 -22 6 -34 -12 -10 -12 -14 1 -27 17 -18 14
-37 -7 -39 -8 0 -26 -2 -41 -2 -35 -2 -37 -22 -3 -22 35 0 31 -12 -10 -31 -33
-16 -35 -15 -35 1 0 21 -34 17 -62 -7 -14 -13 -17 -12 -27 4 -6 10 -11 12 -11
6 0 -7 -7 -13 -15 -13 -8 0 -23 -5 -33 -11 -14 -9 -24 -4 -55 25 -21 20 -43
34 -48 31 -5 -4 -9 1 -9 9 0 10 -6 13 -15 10 -8 -4 -15 -2 -15 4 0 5 -9 12
-20 15 -16 4 -18 2 -10 -13 12 -23 59 -60 75 -60 7 0 21 -12 30 -27 26 -39 65
-73 85 -73 9 0 34 -11 54 -25 47 -32 124 -34 181 -5 22 11 45 20 51 20 7 0 16
10 20 22 4 13 15 34 25 48 10 14 28 54 39 90 24 71 51 114 82 131 29 16 39 0
42 -64 3 -64 36 -154 81 -217 17 -25 35 -57 38 -70 3 -14 23 -52 43 -85 57
-92 125 -227 121 -239 -2 -6 12 -23 31 -38 19 -16 45 -50 58 -78 13 -27 27
-50 32 -50 18 0 52 -42 52 -64 0 -13 -8 -30 -17 -38 -25 -20 -131 -39 -240
-43 -66 -3 -99 -8 -118 -21 -15 -10 -51 -22 -79 -26 -129 -22 -153 -26 -184
-36 -18 -6 -39 -9 -47 -6 -7 3 -30 1 -51 -5 -28 -7 -81 -6 -194 5 -85 9 -195
17 -245 17 l-89 2 -21 -59 c-26 -74 -53 -91 -90 -56 -14 13 -25 28 -25 34 0 6
-9 22 -20 36 l-19 25 -31 -23 c-17 -13 -38 -21 -46 -18 -20 8 -59 97 -75 173
-11 53 -17 63 -34 63 -11 0 -26 -9 -33 -20 -12 -20 -47 -26 -68 -12 -21 13
-37 56 -43 112 -6 52 -8 56 -48 78 -51 28 -68 71 -59 148 8 66 2 81 -34 89
-16 3 -34 13 -41 22 -33 39 7 143 92 237 25 28 66 78 91 112 53 69 143 159
190 188 56 36 134 39 188 9z m15466 -47 c8 -8 14 -17 14 -21 0 -15 33 -37 62
-40 17 -3 34 -9 38 -15 9 -15 1 -159 -10 -181 -19 -35 -128 -77 -165 -63 -8 3
-30 29 -50 57 -19 29 -42 62 -50 73 -20 27 -23 129 -6 194 0 3 35 6 77 7 54 2
80 -1 90 -11z m-272 -276 c14 -5 26 -15 26 -21 0 -6 11 -22 25 -35 22 -20 25
-29 19 -61 -8 -44 -39 -100 -62 -112 -10 -5 -33 -11 -53 -15 -38 -7 -62 10
-89 64 -26 50 -24 98 5 136 39 50 78 64 129 44z m-6709 -70 c10 -32 -13 -86
-41 -99 -28 -12 -74 -5 -74 12 0 6 -13 -1 -28 -16 -37 -35 -93 -37 -114 -4
-29 47 3 85 60 70 14 -3 30 1 42 12 23 21 86 44 122 45 18 0 29 -6 33 -20z
m-2517 -139 c2 -13 -1 -28 -7 -34 -6 -6 -11 -19 -11 -29 0 -10 -8 -23 -19 -29
-11 -7 -16 -19 -13 -31 5 -22 20 -24 28 -3 7 17 22 19 43 6 11 -7 12 -13 4
-23 -15 -18 -28 -82 -15 -74 6 4 8 -2 5 -14 -5 -17 -8 -18 -21 -8 -13 11 -15
9 -9 -20 5 -23 3 -31 -4 -26 -6 4 -15 1 -19 -6 -6 -10 -13 -8 -30 8 -14 12
-18 22 -11 27 16 9 13 35 -3 35 -8 0 -17 -11 -20 -25 -5 -18 -15 -27 -36 -32
-17 -3 -33 -10 -36 -14 -3 -5 -12 -9 -20 -9 -20 0 -17 33 6 75 11 20 20 42 20
51 0 8 10 18 23 23 26 10 44 30 46 51 7 86 21 111 48 88 10 -8 13 -6 13 9 0
40 33 43 38 4z m8767 -106 c0 -31 -4 -40 -20 -45 -11 -3 -20 -9 -20 -15 0 -24
-30 -72 -50 -82 -41 -19 -100 33 -84 75 13 34 87 100 118 105 50 8 56 4 56
-38z"/>
<path d="M6316 2340 c-2 -8 -7 -40 -9 -70 -5 -55 10 -103 43 -144 11 -15 12
-20 2 -23 -31 -11 -44 -36 -37 -72 7 -40 35 -79 35 -49 0 9 -4 20 -10 23 -15
9 -12 51 4 64 11 9 24 5 59 -19 25 -16 50 -30 56 -30 21 0 11 33 -22 74 -37
47 -59 90 -62 126 -3 27 -23 82 -42 115 -9 16 -13 17 -17 5z"/>
<path d="M7525 2160 c-11 -12 -25 -18 -36 -15 -14 5 -19 -2 -24 -39 -8 -53 0
-87 20 -79 8 3 18 -2 21 -11 10 -26 31 -18 53 19 11 19 25 35 30 35 15 0 24
79 11 95 -18 21 -54 18 -75 -5z"/>
<path d="M7918 1919 c-22 -13 -24 -75 -4 -115 8 -15 13 -31 10 -36 -3 -5 0
-15 6 -23 14 -17 60 -20 60 -4 0 6 6 9 14 6 8 -3 17 1 20 9 6 16 -2 44 -14 44
-4 0 -20 29 -36 65 -31 70 -31 69 -56 54z"/>
<path d="M14650 5630 c0 -10 9 -24 19 -30 11 -5 41 -28 66 -50 25 -22 56 -40
69 -40 12 0 31 -7 42 -15 27 -20 31 -19 42 14 11 32 -2 60 -45 94 -13 10 -30
25 -37 33 -10 9 -37 14 -85 14 -64 0 -71 -2 -71 -20z"/>
<path d="M19936 5641 c17 -15 133 -39 137 -28 5 15 106 -53 145 -98 48 -54 86
-143 116 -271 20 -81 25 -125 21 -167 -3 -31 -2 -57 3 -57 4 0 16 -14 26 -30
10 -17 35 -50 57 -73 l39 -42 0 388 0 387 -277 0 c-156 0 -273 -4 -267 -9z"/>
<path d="M13110 3983 c-33 -13 -55 -49 -69 -113 -11 -50 2 -98 40 -155 37 -54
74 -60 133 -24 17 10 39 19 49 19 27 0 31 27 11 73 -20 43 -20 77 0 89 17 11
-19 69 -60 96 -34 21 -73 27 -104 15z"/>
<path d="M9643 3638 c-22 -11 -23 -15 -23 -160 0 -87 4 -148 10 -148 5 0 10
30 12 67 l3 66 53 2 c58 2 95 27 107 72 19 76 -83 139 -162 101z m117 -38 c26
-26 26 -64 -1 -91 -16 -16 -30 -19 -67 -17 -47 3 -47 3 -50 42 -6 72 2 86 53
86 32 0 51 -6 65 -20z"/>
<path d="M10440 3574 l0 -75 -22 15 c-12 9 -39 16 -59 16 -74 0 -116 -83 -78
-156 22 -43 90 -57 135 -27 25 16 27 16 36 0 14 -26 29 -10 18 19 -6 14 -10
84 -10 155 0 79 -4 129 -10 129 -6 0 -10 -32 -10 -76z m-40 -74 c47 -25 43
-116 -6 -139 -37 -16 -52 -14 -79 14 -63 62 8 166 85 125z"/>
<path d="M10045 3506 c-67 -67 -26 -176 67 -176 87 0 130 101 72 169 -22 26
-33 31 -70 31 -34 0 -51 -6 -69 -24z m100 -2 c23 -9 48 -62 41 -90 -8 -32 -45
-64 -73 -64 -13 0 -35 11 -48 25 -62 61 0 159 80 129z"/>
<path d="M12710 3440 c-8 -5 -29 -10 -46 -10 -40 0 -68 -30 -59 -62 11 -38 55
-108 67 -108 6 0 26 11 44 25 17 13 57 34 87 45 92 35 101 60 35 103 -30 18
-104 23 -128 7z"/>
<path d="M13411 3218 c-19 -5 -52 -28 -74 -50 -37 -38 -38 -41 -26 -71 21 -52
136 -224 154 -231 28 -10 100 -7 113 6 17 17 15 50 -9 113 -11 31 -18 62 -15
70 3 8 1 17 -4 20 -6 4 -10 13 -10 22 0 11 6 14 21 10 30 -8 79 3 79 18 0 16
-68 77 -103 93 -33 14 -78 14 -126 0z"/>
</g>
</svg>
